<?xml version="1.0" standalone="no"?>
<!DOCTYPE svg PUBLIC "-//W3C//DTD SVG 20010904//EN"
 "http://www.w3.org/TR/2001/REC-SVG-20010904/DTD/svg10.dtd">
<svg version="1.0" xmlns="http://www.w3.org/2000/svg"
 width="282.000000pt" height="282.000000pt" viewBox="0 0 282.000000 282.000000"
 preserveAspectRatio="xMidYMid meet">
<metadata>
Created by potrace 1.11, written by Peter Selinger 2001-2013
</metadata>
<g transform="translate(0.000000,282.000000) scale(0.100000,-0.100000)"
fill="#000000" stroke="none">
<path d="M233 2695 c-51 -52 -93 -100 -94 -107 0 -7 -1 -72 -1 -145 l0 -131
-29 -28 -29 -28 0 -403 0 -404 25 -23 c14 -13 25 -27 25 -32 0 -6 -24 -33 -54
-63 l-53 -52 0 -487 c0 -281 4 -492 9 -499 5 -6 34 -11 66 -10 l57 0 2 -53 c2
-52 4 -55 72 -124 l71 -71 385 0 385 0 63 63 63 62 220 0 220 0 62 -63 62 -62
385 0 385 0 71 71 c70 70 71 72 71 123 -1 55 0 56 73 52 63 -3 60 -29 60 509
l0 491 -58 56 -58 56 28 24 28 25 3 403 3 404 -31 34 -30 35 0 139 0 140 -96
97 -97 96 -227 0 -227 0 -112 -119 -112 -119 -156 -1 c-114 -1 -159 -4 -165
-13 -11 -19 -9 -387 3 -409 17 -32 39 -22 109 51 l67 70 181 0 c128 0 183 3
188 12 12 19 11 138 0 146 -38 23 -65 1 -61 -51 1 -15 -3 -31 -9 -35 -6 -4
-81 -7 -166 -8 -85 -1 -157 -2 -160 -3 -3 0 -23 -17 -43 -36 -20 -19 -39 -35
-40 -35 -2 0 -4 54 -4 120 l-1 120 27 1 c14 0 77 1 139 1 l114 0 51 52 c29 30
81 83 116 120 37 39 72 66 85 67 11 0 101 1 200 1 l179 0 74 -76 75 -76 0
-103 c0 -56 0 -116 -1 -132 l-1 -30 -131 0 -131 0 -29 35 c-25 30 -29 42 -27
85 l3 50 50 1 c28 1 55 2 61 3 18 2 23 39 8 52 -20 17 -174 15 -184 -2 -5 -7
-8 -50 -8 -96 0 -79 2 -87 29 -118 16 -18 29 -37 29 -42 0 -5 -13 -22 -29 -37
l-30 -29 0 -151 c1 -83 3 -159 5 -168 6 -20 49 -25 60 -7 3 6 6 75 6 154 1
143 1 144 28 172 l28 28 143 -1 c79 -1 151 -2 160 -3 14 -1 16 -40 16 -378 l0
-377 -25 -23 c-24 -22 -32 -23 -164 -22 -137 1 -140 1 -167 -25 l-27 -26 -25
26 c-25 25 -31 26 -140 25 -62 -1 -118 -6 -123 -11 -6 -6 -11 -69 -11 -146 -1
-150 -2 -144 74 -227 l33 -36 179 1 c110 1 183 -2 189 -8 7 -7 9 -75 8 -183
l-3 -172 -80 77 c-140 134 -92 119 -398 119 l-267 0 -47 -47 -47 -47 -1 -88
c-1 -48 2 -95 6 -104 5 -9 66 -73 135 -142 l127 -125 187 0 c103 0 193 4 199
7 7 5 12 38 12 86 l1 78 -44 41 c-113 106 -110 104 -186 103 -54 0 -72 -4 -80
-18 -18 -29 6 -49 63 -50 28 -1 59 -6 70 -12 34 -17 103 -91 105 -112 6 -57
13 -55 -152 -55 l-152 0 -111 116 -112 115 2 65 c1 55 6 68 28 92 l26 27 240
0 240 0 27 -25 c16 -14 74 -69 129 -122 l100 -98 83 0 c67 0 84 3 89 16 10 26
-11 49 -48 51 -19 1 -42 2 -51 2 -17 1 -18 18 -18 209 0 166 -3 212 -15 228
-12 19 -12 24 0 40 15 20 20 130 7 151 -13 20 -64 3 -61 -20 5 -40 -3 -87 -18
-104 -17 -19 -30 -20 -174 -21 l-157 0 -33 34 c-33 34 -33 35 -34 135 -1 61 3
103 9 107 6 4 39 7 74 7 56 1 65 -2 90 -28 20 -21 27 -38 27 -69 0 -27 6 -44
17 -51 26 -17 48 8 48 57 0 33 6 48 25 66 24 23 34 24 143 26 l117 1 61 -61
60 -61 0 -445 -1 -445 -60 -2 c-33 -1 -91 -2 -128 -2 -53 -1 -69 -5 -74 -17
-12 -33 11 -49 70 -49 l55 0 4 -38 c3 -35 -1 -42 -52 -90 l-55 -53 -352 1
-352 0 -65 62 -66 62 -105 -2 -105 -2 -1 45 c0 25 0 243 0 485 0 243 -4 447
-8 454 -5 7 -19 11 -32 9 l-24 -3 -3 -492 -2 -493 -48 -1 c-26 0 -74 -1 -107
-1 l-60 0 -63 -61 -62 -62 -356 0 -356 0 -51 52 c-43 42 -52 58 -52 87 -1 39
-2 38 77 38 45 0 64 18 48 47 -11 22 -38 25 -197 21 l-62 -1 0 449 0 449 59
60 59 59 113 -1 c164 -2 174 -7 177 -107 1 -28 6 -38 21 -43 26 -8 51 12 49
39 -3 42 2 61 20 85 17 22 27 25 95 26 70 1 76 -1 77 -20 0 -11 1 -59 1 -107
0 -83 -2 -88 -32 -121 l-31 -35 -159 0 c-183 0 -186 1 -193 84 -2 28 -7 57
-11 63 -11 17 -49 7 -56 -15 -12 -32 -1 -124 15 -141 14 -14 14 -17 0 -32 -12
-15 -15 -52 -15 -232 l0 -214 -51 0 c-55 0 -78 -17 -66 -49 5 -13 22 -16 87
-16 l81 0 96 92 c53 51 110 107 127 123 l31 30 238 0 238 0 30 -26 c27 -23 30
-32 31 -92 1 -37 -2 -70 -6 -74 -3 -4 -54 -56 -112 -115 l-105 -109 -151 3
-152 3 -2 32 c-2 28 6 40 56 87 57 52 61 54 116 55 65 0 79 9 70 44 -6 24 -10
25 -80 25 l-74 0 -78 -72 -78 -73 -1 -69 c-2 -109 -15 -103 209 -102 l194 1
132 132 132 132 -1 99 -1 99 -46 45 -46 45 -271 0 -272 0 -100 -97 c-55 -53
-101 -95 -102 -94 -8 7 -3 340 5 348 5 5 90 10 188 12 98 2 182 4 185 5 3 0
27 26 53 57 l48 55 0 139 c0 77 -3 144 -7 150 -4 6 -55 10 -123 10 -110 0
-117 -1 -142 -25 l-26 -25 -26 25 c-25 23 -32 24 -171 26 -207 1 -188 -43
-185 425 l3 379 155 0 c154 0 155 0 185 -26 l30 -27 1 -134 c2 -188 0 -178 28
-178 13 0 28 6 33 13 5 6 9 83 8 169 l-1 157 -29 31 c-21 22 -27 34 -20 44 48
65 49 69 50 153 0 57 -3 88 -12 95 -19 16 -174 12 -184 -4 -11 -16 -11 -20 1
-38 6 -9 27 -14 67 -15 l58 0 1 -51 c1 -41 -4 -56 -27 -84 l-29 -34 -130 -1
-130 -1 -1 36 c0 19 0 79 0 133 l0 98 75 76 74 77 199 -1 198 -1 112 -119 113
-118 117 -2 c65 -1 129 -2 143 -2 l25 -1 -1 -117 c-1 -65 -2 -120 -3 -123 0
-2 -19 14 -41 35 l-40 39 -158 2 c-191 2 -183 1 -181 17 6 45 -2 76 -21 82
-36 11 -50 -12 -50 -79 0 -33 4 -67 9 -74 6 -11 48 -14 189 -13 l180 0 69 -71
c55 -55 74 -69 90 -64 12 4 23 14 25 24 9 40 2 392 -8 402 -8 8 -64 11 -160
10 l-149 -1 -116 121 -115 120 -230 0 -229 0 -92 -95z"/>
<path d="M275 2052 c-7 -19 -6 -387 1 -406 5 -14 33 -16 206 -16 l199 0 74 74
c50 49 75 82 76 97 0 13 0 63 1 112 l0 87 92 0 93 0 135 -134 c139 -139 173
-159 173 -103 0 20 -32 59 -138 166 l-139 141 -133 0 c-94 0 -135 -4 -142 -12
-6 -7 -10 -66 -10 -130 l0 -118 -56 -55 -56 -55 -155 0 -156 0 0 173 c0 94 -4
177 -8 184 -10 16 -50 12 -57 -5z"/>
<path d="M1635 1925 c-77 -79 -140 -149 -139 -155 2 -24 5 -28 24 -33 15 -4
51 26 154 129 l134 135 93 -3 94 -3 0 -107 0 -108 75 -75 74 -75 197 0 c145 0
199 3 206 13 6 7 10 94 9 211 -1 174 -3 200 -18 209 -12 8 -21 7 -32 -2 -14
-11 -16 -41 -16 -187 l0 -174 -158 0 -158 0 -54 55 -54 55 -1 117 c0 65 -4
124 -8 131 -6 9 -47 12 -145 12 l-137 0 -140 -145z"/>
<path d="M1110 1530 c-9 -17 -4 -27 30 -64 22 -24 40 -45 40 -48 0 -3 -13 -18
-28 -35 l-29 -29 0 -152 c-1 -164 6 -190 45 -178 14 5 22 16 22 29 1 12 1 79
1 149 l1 126 30 29 c29 28 31 28 174 33 157 5 174 3 213 -36 25 -25 25 -29 26
-170 1 -148 4 -163 42 -164 23 0 27 25 28 177 l1 154 -28 31 c-15 17 -28 34
-28 38 0 3 16 22 35 40 38 37 42 65 13 84 -15 9 -26 3 -65 -35 l-48 -46 -164
-1 c-90 -1 -172 3 -181 8 -10 5 -33 25 -53 45 -40 40 -61 44 -77 15z"/>
</g>
</svg>
